<svg width="20" height="21" viewBox="0 0 20 21" fill="none" xmlns="http://www.w3.org/2000/svg">
<path d="M19.6875 10.4375C19.6875 5.125 15.3125 0.75 10 0.75C4.64844 0.75 0.3125 5.125 0.3125 10.4375C0.3125 15.7891 4.64844 20.125 10 20.125C15.3125 20.125 19.6875 15.7891 19.6875 10.4375ZM8.86719 15.5938C8.63281 15.8281 8.20312 15.8281 7.96875 15.5938L3.90625 11.5312C3.67188 11.2969 3.67188 10.8672 3.90625 10.6328L4.80469 9.77344C5.03906 9.5 5.42969 9.5 5.66406 9.77344L8.4375 12.5078L14.2969 6.64844C14.5312 6.375 14.9219 6.375 15.1562 6.64844L16.0547 7.50781C16.2891 7.74219 16.2891 8.17188 16.0547 8.40625L8.86719 15.5938Z" fill="#FF2D46"/>
</svg>
