<svg width="72" height="30" viewBox="0 0 72 30" fill="none" xmlns="http://www.w3.org/2000/svg">
<path d="M13.6096 4.52627V0.225586H0.0498047V29.7738H13.6096V25.4731C10.8319 25.4731 8.16788 24.3696 6.20377 22.4055C4.23962 20.4413 3.13618 17.7774 3.13618 14.9997C3.13618 12.222 4.23962 9.55798 6.20377 7.59387C8.16788 5.62972 10.8319 4.52627 13.6096 4.52627Z" fill="#E02F36"/>
<path d="M13.6101 4.52637V25.4732C16.3878 25.4732 19.0518 24.3697 21.016 22.4056C22.9801 20.4414 24.0835 17.7775 24.0835 14.9998C24.0835 12.2221 22.9801 9.55808 21.016 7.59397C19.0518 5.62982 16.3878 4.52637 13.6101 4.52637Z" fill="#E02F36"/>
<path d="M31.6931 7.15771H34.7289V21.78H31.6931V7.15771Z" fill="#E02F36"/>
<path d="M36.4292 16.771C36.4292 15.719 36.7416 14.6907 37.3267 13.8164C37.9118 12.9421 38.7433 12.2611 39.7158 11.8599C40.6884 11.4588 41.7581 11.3554 42.7894 11.5628C43.8208 11.7703 44.7674 12.2793 45.5091 13.0252C46.2508 13.7713 46.7545 14.7207 46.956 15.7533C47.1575 16.7859 47.048 17.855 46.6412 18.8252C46.2344 19.7953 45.5489 20.623 44.6712 21.203C43.7936 21.7832 42.7634 22.0896 41.7114 22.0836C41.0137 22.0891 40.3219 21.9552 39.6766 21.6897C39.0313 21.4242 38.4453 21.0326 37.9533 20.5379C37.4614 20.0431 37.0732 19.4549 36.8114 18.8081C36.5497 18.1613 36.4198 17.4687 36.4292 16.771ZM44.0389 16.771C44.0269 16.3174 43.8815 15.8775 43.6208 15.5062C43.3602 15.1348 42.9959 14.8485 42.5733 14.6832C42.1508 14.5178 41.689 14.4807 41.2455 14.5765C40.802 14.6723 40.3966 14.8966 40.08 15.2216C39.7634 15.5466 39.5496 15.9576 39.4654 16.4035C39.3812 16.8493 39.4303 17.31 39.6065 17.7281C39.7828 18.1461 40.0784 18.503 40.4564 18.7539C40.8344 19.0048 41.2779 19.1387 41.7317 19.1389C42.0406 19.145 42.3474 19.0872 42.633 18.9692C42.9186 18.8513 43.1767 18.6757 43.3913 18.4535C43.606 18.2313 43.7724 17.9671 43.8804 17.6777C43.9884 17.3882 44.0354 17.0795 44.0186 16.771H44.0389Z" fill="#E02F36"/>
<path d="M59.005 11.7618V21.284C59.005 24.6436 56.374 26.0704 53.7126 26.0704C52.7739 26.1474 51.8323 25.9609 50.9939 25.5318C50.1554 25.1028 49.4533 24.4482 48.9667 23.6418L51.5269 22.1644C51.7343 22.5827 52.0643 22.9278 52.4729 23.1537C52.8815 23.3797 53.3492 23.4758 53.8138 23.4293C54.1098 23.4657 54.4101 23.4363 54.6934 23.3433C54.9767 23.2501 55.2359 23.0955 55.4524 22.8905C55.6691 22.6855 55.8377 22.4352 55.9462 22.1575C56.0548 21.8798 56.1007 21.5815 56.0805 21.284V20.3631C55.7273 20.7915 55.279 21.1315 54.7714 21.3563C54.2637 21.5812 53.7107 21.6846 53.1561 21.6584C51.8141 21.6584 50.5273 21.1253 49.5784 20.1764C48.6295 19.2276 48.0964 17.9407 48.0964 16.5988C48.0964 15.2569 48.6295 13.97 49.5784 13.0211C50.5273 12.0722 51.8141 11.5391 53.1561 11.5391C53.7107 11.5129 54.2637 11.6163 54.7714 11.8412C55.279 12.066 55.7273 12.4061 56.0805 12.8344V11.8225L59.005 11.7618ZM56.0805 16.5684C56.1007 16.0843 55.9756 15.6052 55.7213 15.1927C55.467 14.7802 55.0952 14.4533 54.6535 14.2538C54.2119 14.0544 53.7208 13.9916 53.2432 14.0736C52.7657 14.1556 52.3235 14.3785 51.9736 14.7138C51.6238 15.049 51.3823 15.4813 51.2801 15.955C51.1779 16.4287 51.2196 16.922 51.4001 17.3717C51.5806 17.8214 51.8915 18.2068 52.2927 18.4784C52.694 18.75 53.1674 18.8954 53.6519 18.8958C53.9681 18.9186 54.2856 18.8748 54.5837 18.7673C54.8819 18.6598 55.1543 18.4909 55.3831 18.2715C55.612 18.0522 55.7923 17.7873 55.9124 17.4939C56.0326 17.2006 56.0898 16.8852 56.0805 16.5684Z" fill="#E02F36"/>
<path d="M60.7152 16.7711C60.7152 15.7199 61.0271 14.6924 61.6113 13.8185C62.1954 12.9446 63.0257 12.2637 63.9971 11.862C64.9684 11.4601 66.0371 11.3555 67.068 11.5613C68.0988 11.7672 69.0454 12.2741 69.788 13.0181C70.5306 13.7622 71.0357 14.7097 71.2395 15.7409C71.4434 16.7721 71.3368 17.8406 70.9331 18.8112C70.5295 19.7818 69.8469 20.6108 68.972 21.1933C68.097 21.7759 67.0689 22.0858 66.0177 22.0837C65.3186 22.0905 64.6252 21.9576 63.9782 21.6929C63.3311 21.4282 62.7434 21.037 62.2496 20.5422C61.7557 20.0473 61.3656 19.4589 61.1021 18.8114C60.8387 18.1638 60.7071 17.4702 60.7152 16.7711ZM68.3249 16.7711C68.3129 16.3172 68.1672 15.8768 67.9061 15.5052C67.6451 15.1337 67.2801 14.8475 66.857 14.6824C66.4339 14.5174 65.9715 14.4808 65.5278 14.5775C65.0841 14.674 64.6787 14.8995 64.3625 15.2254C64.0463 15.5513 63.8332 15.9634 63.7503 16.4099C63.6672 16.8563 63.7177 17.3174 63.8955 17.7352C64.0733 18.1531 64.3705 18.5092 64.7498 18.7589C65.1291 19.0086 65.5737 19.1409 66.0278 19.139C66.3367 19.1451 66.6436 19.0873 66.9291 18.9693C67.2147 18.8514 67.4728 18.6759 67.6875 18.4537C67.9021 18.2314 68.0686 17.9672 68.1765 17.6778C68.2845 17.3883 68.3316 17.0797 68.3148 16.7711H68.3249Z" fill="#E02F36"/>
</svg>
