<svg width="1920" height="1080" viewBox="0 0 1920 1080" fill="none" xmlns="http://www.w3.org/2000/svg">
<g opacity="0.9" clip-path="url(#clip0_189_643)">
<rect width="1920" height="1080" fill="white"/>
<g filter="url(#filter0_f_189_643)">
<path d="M1835.09 295.487C1947.49 317.706 2038.58 158.121 2128.67 145.02C2448.71 98.4757 2395.97 812.01 2066.66 909.922C1755.11 1002.56 1434.23 469.951 1434.23 469.951C1434.23 469.951 1397.32 316.524 1459.33 259.453C1515.3 207.949 1563.17 222.764 1643.2 240.861C1706.42 255.159 1771.36 282.889 1835.09 295.487Z" fill="#FFAD61"/>
</g>
<g filter="url(#filter1_f_189_643)">
<path d="M1866.31 657.531C2041.13 689.709 2307.15 530.317 2447.27 511.343C2945.02 443.937 2733.37 1111.12 2221.21 1252.92C1736.67 1387.07 1242.86 910.192 1242.86 910.192C1242.86 910.192 1146.42 705.839 1242.86 623.189C1329.9 548.599 1443.41 552.212 1567.87 578.421C1666.2 599.128 1767.19 639.287 1866.31 657.531Z" fill="#FF2D46"/>
</g>
<g filter="url(#filter2_f_189_643)">
<ellipse cx="1340.13" cy="1274.35" rx="738.536" ry="436.74" fill="#F8333A"/>
</g>
<g filter="url(#filter3_f_189_643)">
<path d="M215.015 1123.24C126.694 1257.18 24.6669 1361.14 151.63 1486.82C399.161 1731.84 1285.65 1729.91 1540.47 1486.82C1741.88 1294.69 1406.13 1148.43 1192.12 959.841C1097.68 876.628 1114.91 799.12 949.402 752.624C579.038 648.58 349.396 919.457 215.015 1123.24Z" fill="#FFCACA"/>
</g>
<g filter="url(#filter4_f_189_643)">
<ellipse cx="493.333" cy="676.614" rx="806.667" ry="339.627" fill="#FFFEFF" fill-opacity="0.9"/>
</g>
</g>
<defs>
<filter id="filter0_f_189_643" x="1003.33" y="-277.159" width="1759.73" height="1617.9" filterUnits="userSpaceOnUse" color-interpolation-filters="sRGB">
<feFlood flood-opacity="0" result="BackgroundImageFix"/>
<feBlend mode="normal" in="SourceGraphic" in2="BackgroundImageFix" result="shape"/>
<feGaussianBlur stdDeviation="210" result="effect1_foregroundBlur_189_643"/>
</filter>
<filter id="filter1_f_189_643" x="700" y="6.57471" width="2530.26" height="1770.14" filterUnits="userSpaceOnUse" color-interpolation-filters="sRGB">
<feFlood flood-opacity="0" result="BackgroundImageFix"/>
<feBlend mode="normal" in="SourceGraphic" in2="BackgroundImageFix" result="shape"/>
<feGaussianBlur stdDeviation="250" result="effect1_foregroundBlur_189_643"/>
</filter>
<filter id="filter2_f_189_643" x="181.594" y="417.614" width="2317.07" height="1713.48" filterUnits="userSpaceOnUse" color-interpolation-filters="sRGB">
<feFlood flood-opacity="0" result="BackgroundImageFix"/>
<feBlend mode="normal" in="SourceGraphic" in2="BackgroundImageFix" result="shape"/>
<feGaussianBlur stdDeviation="210" result="effect1_foregroundBlur_189_643"/>
</filter>
<filter id="filter3_f_189_643" x="-328" y="309.614" width="2350.44" height="1780.25" filterUnits="userSpaceOnUse" color-interpolation-filters="sRGB">
<feFlood flood-opacity="0" result="BackgroundImageFix"/>
<feBlend mode="normal" in="SourceGraphic" in2="BackgroundImageFix" result="shape"/>
<feGaussianBlur stdDeviation="210" result="effect1_foregroundBlur_189_643"/>
</filter>
<filter id="filter4_f_189_643" x="-733.334" y="-83.0122" width="2453.33" height="1519.25" filterUnits="userSpaceOnUse" color-interpolation-filters="sRGB">
<feFlood flood-opacity="0" result="BackgroundImageFix"/>
<feBlend mode="normal" in="SourceGraphic" in2="BackgroundImageFix" result="shape"/>
<feGaussianBlur stdDeviation="210" result="effect1_foregroundBlur_189_643"/>
</filter>
<clipPath id="clip0_189_643">
<rect width="1920" height="1080" fill="white"/>
</clipPath>
</defs>
</svg>
