<svg width="964" height="228" viewBox="0 0 964 228" fill="none" xmlns="http://www.w3.org/2000/svg">
<path d="M82.9013 26.24V1.59999H0.0212502V80H29.1413V59.28H76.1813V34.64H29.1413V26.24H82.9013ZM117.569 1.59999H88.4487V80H117.569V1.59999ZM169.429 53.008H190.485C189.365 58.272 182.533 59.84 171.333 59.84C154.197 59.84 151.173 51.328 151.173 41.808C151.173 32.4 154.085 25.12 171.333 25.12C183.653 25.12 189.365 28.816 190.485 32.848H220.277C219.045 11.456 202.693 0.479996 171.333 0.479996C139.077 0.479996 122.053 13.472 122.053 40.688C122.053 68.016 139.077 81.12 167.973 81.12C184.437 81.12 194.741 76.416 201.349 68.688L203.477 80H220.277V37.328H169.429V53.008ZM300.969 1.59999V28.48H255.049V1.59999H225.929V80H255.049V53.12H300.969V80H330.089V1.59999H300.969ZM431.978 1.59999H335.658V26.24H369.258V80H398.378V26.24H431.978V1.59999ZM466.685 1.59999H437.565V80H466.685V1.59999ZM545.287 1.59999V47.856L511.463 1.59999H473.383V80H502.503V33.744L536.327 80H574.407V1.59999H545.287ZM626.332 53.008H647.388C646.268 58.272 639.436 59.84 628.236 59.84C611.1 59.84 608.076 51.328 608.076 41.808C608.076 32.4 610.988 25.12 628.236 25.12C640.556 25.12 646.268 28.816 647.388 32.848H677.18C675.948 11.456 659.596 0.479996 628.236 0.479996C595.98 0.479996 578.956 13.472 578.956 40.688C578.956 68.016 595.98 81.12 624.876 81.12C641.34 81.12 651.644 76.416 658.252 68.688L660.38 80H677.18V37.328H626.332V53.008ZM710.876 59.84V80H720.732L713.116 104.64H725.1L737.756 80V59.84H710.876ZM671.385 155.2V132.8H643.945V114.88L617.065 121.6V132.8H603.513V155.2H617.065V180.176C617.065 194.736 627.369 201.12 648.201 201.12C657.049 201.12 665.001 200.56 671.385 199.44V177.6C663.657 178.72 660.297 178.72 654.249 178.72C646.409 178.72 643.945 175.472 643.945 169.088V155.2H671.385ZM676.982 110.4V128.32H703.862V110.4H676.982ZM676.982 132.8V200H703.862V132.8H676.982ZM769.973 131.68C755.861 131.68 745.557 136.16 737.493 141.76V132.8H710.613V200H737.493V163.712C742.757 158.672 751.157 155.2 759.109 155.2C771.205 155.2 775.349 160.128 775.349 171.664V200H802.229V160.688C802.229 136.384 785.093 131.68 769.973 131.68ZM872.386 132.8V142.88C866.562 135.824 857.042 131.68 843.49 131.68C822.77 131.68 807.874 141.536 807.874 164.16C807.874 186.784 822.77 196.64 843.49 196.64C857.042 196.64 866.562 192.496 872.386 185.44C872.162 202.464 865.106 205.6 852.002 205.6C837.442 205.6 822.658 202.352 814.93 200.896V222.736C821.314 224.416 837.778 228 856.93 228C880.002 228 899.266 218.256 899.266 191.376V132.8H872.386ZM853.57 174.24C839.346 174.24 834.754 171.776 834.754 164.16C834.754 156.544 839.346 154.08 853.57 154.08C867.794 154.08 872.386 156.544 872.386 164.16C872.386 171.776 867.794 174.24 853.57 174.24ZM963.116 121.6H933.996L935.116 173.12H961.996L963.116 121.6ZM935.116 179.84V200H961.996V179.84H935.116Z" fill="#1D1D1D"/>
<path d="M75.0613 121.6V148.48H29.1413V121.6H0.0212502V200H29.1413V173.12H75.0613V200H104.181V121.6H75.0613ZM242.247 121.6L226.007 176.928L208.983 121.6H174.263L157.239 176.928L140.999 121.6H109.751L135.511 200H178.743L191.623 154.864L204.503 200H247.735L273.495 121.6H242.247ZM330.666 200H362.698L330.218 121.6H286.986L254.506 200H286.538L291.914 185.888H325.29L330.666 200ZM299.53 165.728L308.602 141.76L317.674 165.728H299.53ZM370.575 150.72V173.12H460.175V150.72H370.575ZM552.002 144V121.6H469.122V200H552.002V177.6H498.242V170.32H552.002V151.28H498.242V144H552.002Z" fill="#E02F36"/>
</svg>
